# xmcd CD database file
#
# Track frame offsets:
#	170
#	99081
#	226971
#	273160
#
# Disc length: 4103 seconds
#
# Revision: 0
# Processed by: cddbd v1.5.2PL0 Copyright (c) Steve Scherf et al.
# Submitted via: CDex 1.51
#
DISCID=23100504
DTITLE=Irène Schweizer - Willisau and Taktlos
DYEAR=2007
DGENRE=Jazz
TTITLE0=A Former Dialog
TTITLE1=Trinity
TTITLE2=Schwandrake
TTITLE3=Willisau
EXTD=YEAR: 2007
EXTT0=
EXTT1=
EXTT2=
EXTT3=
PLAYORDER=
